<?xml version="1.0" encoding="iso-8859-1"?>
<!-- Uploaded to: SVG Repo, www.svgrepo.com, Generator: SVG Repo Mixer Tools -->
<svg height="800px" width="800px" version="1.1" id="Layer_1" xmlns="http://www.w3.org/2000/svg" xmlns:xlink="http://www.w3.org/1999/xlink" 
	 viewBox="0 0 512 512" xml:space="preserve">
<path style="fill:#9AE523;" d="M338.18,11.824c-2.214,2.214-7.149,61.506,26.377,95.032s89.973,31.436,95.032,26.377
	c5.059-5.059,7.149-61.506-26.377-95.032C399.686,4.674,339.828,10.176,338.18,11.824z"/>
<g>
	<circle style="fill:#FF5764;" cx="141.602" cy="387.15" r="114.404"/>
	<circle style="fill:#FF5764;" cx="370.4" cy="387.15" r="114.404"/>
</g>
<path d="M370.4,262.3c-20.371,0-39.617,4.906-56.622,13.595c-12.341-8.807-27.182-40.065-32.284-81.58
	c-3.101-25.234-8.036-105.778,45.049-155.323c0.234,3.121,0.578,6.485,1.073,10.043c2.625,18.891,9.883,45.539,29.551,65.209
	c20.019,20.018,45.813,27.682,63.926,30.586c0.774,0.124,10.779,1.692,21.502,1.692c9.579,0,19.733-1.252,24.382-5.901
	c9.854-9.855,4.445-44.417,4.21-45.884c-2.904-18.113-10.568-43.907-30.586-63.926c-19.605-19.603-46.42-26.777-65.463-29.343
	c-10.646-1.435-26.176-1.454-26.486-1.458c-33.491-0.327-67.236,8.24-100.208,25.537c-30.331,15.91-58.843,38.895-82.453,66.468
	c-45.943,53.656-68.965,118.84-62.737,176.318c-14.541,4.704-27.92,12.006-39.593,21.358c-0.031,0.022-0.064,0.043-0.095,0.066
	c0.002,0.002,0.004,0.004,0.006,0.006c-28.526,22.901-46.824,58.045-46.824,97.387c0,68.843,56.008,124.85,124.85,124.85
	c51.082,0,95.091-30.842,114.4-74.879C275.31,481.158,319.317,512,370.4,512c68.843,0,124.85-56.008,124.85-124.85
	C495.251,318.308,439.244,262.3,370.4,262.3z M425.824,45.589c25.235,25.235,27.806,66.887,25.658,79.536
	c-12.654,2.15-54.305-0.424-79.536-25.658c-18.138-18.138-23.46-45.178-24.609-63.711L390.91,79.33
	c2.041,2.04,4.715,3.06,7.388,3.06c2.674,0,5.348-1.021,7.388-3.06c4.08-4.08,4.08-10.696,0-14.778l-43.322-43.321
	C381.137,22.468,408.102,27.866,425.824,45.589z M181.865,105.606c36.269-42.359,82.714-71.023,129.389-80.895
	c-19.345,18.446-33.604,42.104-42.496,70.641c-12.139,38.958-11.053,76.707-8.004,101.514c4.241,34.504,16.216,72.002,34.587,90.584
	c-0.966,0.729-1.921,1.475-2.864,2.232c-0.03,0.022-0.064,0.043-0.094,0.065c0.003,0.001,0.005,0.003,0.008,0.004
	c-15.657,12.565-28.229,28.818-36.39,47.43c-19.31-44.038-63.318-74.879-114.4-74.879c-6.056,0-12.009,0.442-17.837,1.28
	C119.061,212.382,140.3,154.148,181.865,105.606z M141.599,491.102c-57.319,0-103.952-46.633-103.952-103.952
	c0-32.673,15.157-61.87,38.805-80.94c5.924-3.681,22.623-6.452,38.952,7.729c13.623,11.831,29.772,14.448,41.391,14.447
	c8.771,0,14.961-1.491,15.536-1.634c5.579-1.394,8.956-7.029,7.589-12.615c-1.367-5.586-7.018-9.013-12.609-7.671
	c-0.226,0.053-22.629,5.222-38.205-8.305c-5.4-4.689-11.085-8.218-16.812-10.75c9.299-2.737,19.133-4.213,29.306-4.213
	c57.319,0,103.951,46.632,103.951,103.952S198.918,491.102,141.599,491.102z M370.4,491.102
	c-57.319,0-103.952-46.633-103.952-103.952c0-32.672,15.156-61.866,38.802-80.938c5.921-3.682,22.623-6.457,38.956,7.727
	c13.623,11.831,29.772,14.448,41.391,14.447c8.771,0,14.961-1.491,15.536-1.634c5.579-1.394,8.956-7.029,7.589-12.615
	c-1.367-5.586-7.018-9.013-12.609-7.671c-0.226,0.053-22.628,5.222-38.205-8.305c-5.4-4.689-11.084-8.218-16.81-10.751
	c9.298-2.737,19.131-4.212,29.303-4.212c57.319,0,103.952,46.632,103.952,103.952S427.721,491.102,370.4,491.102z"/>
<path d="M413.104,102.522c1.96,3.261,5.42,5.068,8.966,5.068c1.832,0,3.687-0.482,5.373-1.494c4.945-2.973,6.546-9.392,3.574-14.339
	l-0.124-0.207c-2.973-4.944-9.392-6.546-14.339-3.573s-6.546,9.392-3.574,14.339L413.104,102.522z"/>
<path d="M148.619,452.457c-19.179,2.136-38.003-4.46-51.634-18.091c-11.08-11.079-17.614-25.79-18.4-41.423
	c-0.288-5.763-5.158-10.212-10.961-9.911c-5.764,0.289-10.2,5.197-9.91,10.961c1.047,20.816,9.747,40.402,24.494,55.151
	c15.902,15.901,37.102,24.608,59.285,24.608c3.128,0,6.281-0.173,9.436-0.523c5.734-0.637,9.867-5.804,9.229-11.54
	C159.52,455.952,154.368,451.823,148.619,452.457z"/>
<path d="M70.709,367.174c1.487,0.733,3.064,1.081,4.616,1.081c3.854,0,7.558-2.139,9.379-5.827l0.153-0.317
	c2.444-5.228,0.188-11.447-5.039-13.891c-5.204-2.432-11.387-0.207-13.856,4.966C63.413,358.361,65.537,364.621,70.709,367.174z"/>
<path d="M377.421,452.457c-19.185,2.136-38.003-4.461-51.635-18.09c-11.079-11.08-17.613-25.791-18.399-41.424
	c-0.289-5.763-5.149-10.212-10.961-9.911c-5.764,0.289-10.2,5.197-9.91,10.961c1.047,20.815,9.746,40.401,24.493,55.151
	c15.903,15.901,37.104,24.608,59.286,24.608c3.128,0,6.281-0.173,9.436-0.523c5.734-0.637,9.867-5.804,9.229-11.54
	C388.324,455.952,383.167,451.823,377.421,452.457z"/>
<path d="M299.512,367.174c1.487,0.733,3.064,1.081,4.616,1.081c3.854,0,7.558-2.139,9.379-5.827c0.013-0.025,0.053-0.109,0.072-0.15
	c2.53-5.168,0.403-11.412-4.762-13.961c-5.176-2.554-11.44-0.429-13.995,4.746c-0.017,0.032-0.041,0.085-0.057,0.118
	C292.213,358.355,294.338,364.62,299.512,367.174z"/>
</svg>